<svg width="494" height="494" viewBox="0 0 494 494" fill="none" xmlns="http://www.w3.org/2000/svg">
<g clip-path="url(#clip0)">
<path d="M148.836 345.161C264.901 461.226 392.5 521.824 433.821 480.504L13.467 60.151C-27.845 101.472 32.738 229.072 148.836 345.161Z" fill="white"/>
<path d="M195.627 138.033C205.302 128.366 205.302 112.677 195.627 103.009L99.875 7.256C90.2 -2.418 74.519 -2.418 64.852 7.256L32.154 39.945L162.932 170.729L195.627 138.033Z" fill="white"/>
<path d="M485.74 393.594L389.994 297.85C385.348 293.202 379.042 290.591 372.48 290.591C365.908 290.591 359.612 293.202 354.964 297.85L322.276 330.545L453.051 461.314L485.74 428.619C495.415 418.951 495.415 403.269 485.74 393.594Z" fill="white"/>
</g>
<defs>
<clipPath id="clip0">
<rect width="493.485" height="493.485" fill="white"/>
</clipPath>
</defs>
</svg>
